<svg xmlns="http://www.w3.org/2000/svg" xmlns:xlink="http://www.w3.org/1999/xlink" width="375" height="812" viewBox="0 0 375 812">
  <defs>
    <clipPath id="clip-path">
      <rect id="Rettangolo_2" data-name="Rettangolo 2" width="375" height="812" fill="rgba(0,0,0,0)"/>
    </clipPath>
    <linearGradient id="linear-gradient" y1="0.5" x2="1" y2="0.5" gradientUnits="objectBoundingBox">
      <stop offset="0.74" stop-color="#e28f79"/>
      <stop offset="0.88" stop-color="#db9486"/>
      <stop offset="1" stop-color="#d8968b"/>
    </linearGradient>
    <clipPath id="clip-iPhone_X_XS_11_Pro_1">
      <rect width="375" height="812"/>
    </clipPath>
  </defs>
  <g id="iPhone_X_XS_11_Pro_1" data-name="iPhone X, XS, 11 Pro – 1" clip-path="url(#clip-iPhone_X_XS_11_Pro_1)">
    <rect width="375" height="812" fill="rgba(255,255,255,0)"/>
    <g id="iPhone_X_XS_11_Pro_1-2" data-name="iPhone X, XS, 11 Pro – 1" clip-path="url(#clip-path)">
      <rect id="Rettangolo_1" data-name="Rettangolo 1" width="375" height="812" fill="rgba(255,255,255,0)"/>
      <g id="phone_1_no_shadow_3_" data-name="phone_1_no_shadow (3)" transform="translate(30.451 128.975)">
        <path id="Tracciato_1" data-name="Tracciato 1" d="M272.3,705.706,381.523,303.922c.1-.371.194-.751.283-1.13a1.408,1.408,0,0,1,.081-.355c.057-.266.113-.525.161-.807a2.474,2.474,0,0,1,.081-.412c.048-.258.1-.517.137-.807a2.371,2.371,0,0,1,.065-.4q.056-.452.121-.92v-.234c.048-.388.089-.807.121-1.171v-.307c0-.291.04-.581.057-.864v-4.053l-.048-.743v-.339c0-.266-.04-.533-.065-.807v-.242a7.244,7.244,0,0,0-.121-1.025.726.726,0,0,0-.04-.291,4.616,4.616,0,0,0-.089-.67c-.032-.218-.04-.242-.057-.363s-.073-.4-.1-.614a3.625,3.625,0,0,0-.065-.371l-.121-.606-.073-.355c-.04-.218-.089-.444-.137-.662l-.073-.3a1.715,1.715,0,0,0-.1-.436c-.04-.145-.065-.283-.1-.428s-.073-.291-.113-.436-.073-.283-.113-.42l-.121-.436-.121-.42c-.048-.145-.089-.291-.137-.436l-.121-.4c-.153-.468-.307-.928-.476-1.389a1.815,1.815,0,0,0-.065-.194c-.161-.444-.331-.888-.509-1.324,0-.081-.065-.153-.089-.226l-.533-1.251-.1-.2c-.194-.428-.388-.848-.6-1.26l-.048-.1c-.21-.412-.42-.807-.638-1.227l-.057-.1c-.218-.4-.444-.807-.678-1.2l-.122-.2c-.242-.4-.484-.807-.735-1.179-.04-.065-.081-.129-.129-.194q-.371-.581-.807-1.138c-.04-.065-.089-.121-.129-.178-.266-.379-.541-.743-.807-1.106l-.1-.121c-.3-.379-.6-.759-.9-1.122l-.646-.727-.2-.226a9.526,9.526,0,0,0-.807-.807l-.178-.178-.63-.614-.291-.266-.509-.468-.557-.476-.4-.339-.6-.468-.4-.307-.678-.484-.339-.242c-.347-.234-.694-.46-1.05-.678L225.8,175.546A22.211,22.211,0,0,0,210,172.7l13.984-2.261c6.96-1.09,12.272-2.132,18.707,1.825l140.091,86.165c.388.234.767.484,1.138.743.129.081.25.17.371.258l.735.533.428.339c.218.17.436.339.646.517s.3.25.444.379l.42.363.21.194.266.242c.258.242.509.492.759.743l.178.17c.3.307.589.614.88.937l.218.234.363.412c.129.145.25.291.371.444l.113.129c.275.323.541.662.807,1l.153.194c.226.3.452.606.67.912a.813.813,0,0,0,.065.089l.557.807c.1.153.2.3.307.452.234.363.46.735.686,1.114l.121.186h0c.258.436.509.88.751,1.324l.17.331c.186.347.363.686.533,1.033h0c.081.153.153.323.226.476.137.3.283.589.42.888s.161.388.25.581.242.557.355.807a.292.292,0,0,0,0,.073c.065.161.121.323.178.484.121.307.242.606.355.92s.145.412.218.614.2.589.3.88a.547.547,0,0,0,.057.161l.315,1.033a1.862,1.862,0,0,0,.065.226c.121.444.242.888.355,1.332v.048l.194.807.1.46.073.331c.089.436.178.88.258,1.324v.194c.065.4.129.807.186,1.171l.048.347a.687.687,0,0,0,.04.283c.04.1,0,.323.057.492a5.593,5.593,0,0,1,.089.864c.024.291.04.476.065.711s.04.573.057.864,0,.476,0,.719v3.641a9.188,9.188,0,0,1-.1,1.332v.25c-.04.371-.081.751-.129,1.122a.977.977,0,0,1-.04.339c-.065.444-.129.88-.21,1.316a.849.849,0,0,1,0,.153c-.065.4-.145.807-.234,1.171l-.073.347c-.1.436-.21.864-.323,1.3L289.125,702.428c-2.091,7.67-6.54,13.056-12.054,15.559l-16.858,3.286C265.767,718.761,270.215,713.384,272.3,705.706Z" transform="translate(-84.99 -169.45)" fill="#353535"/>
        <path id="Tracciato_2" data-name="Tracciato 2" d="M72,633.583c-12.789-7.864-19.749-26.757-15.55-42.211L165.656,189.588c4.2-15.445,17.973-21.6,30.762-13.726L336.566,262.02c12.789,7.864,19.749,26.757,15.55,42.211L242.9,706.014c-4.2,15.445-17.973,21.6-30.762,13.726Z" transform="translate(-55.18 -170.025)" fill="#231f20"/>
        <path id="Tracciato_3" data-name="Tracciato 3" d="M84.231,624.8c-11.853-7.267-18.312-24.8-14.412-39.126L171.05,213.267c3.892-14.315,16.657-20.015,28.517-12.733L329.485,280.4c11.853,7.267,18.312,24.8,14.412,39.126L242.666,691.939c-3.892,14.315-16.657,20.015-28.517,12.733Z" transform="translate(-57.772 -174.827)" fill="#5291ee"/>
        <path id="Tracciato_4" data-name="Tracciato 4" d="M293.106,554.8l-50.43,185.51c-3.892,14.323-16.657,20.023-28.509,12.733L84.29,673.176c-11.861-7.267-18.312-24.8-14.42-39.118L120.308,448.51,291.79,553.948C292.226,554.222,292.67,554.5,293.106,554.8Z" transform="translate(-57.782 -223.198)" fill="#d25151"/>
        <path id="Tracciato_5" data-name="Tracciato 5" d="M293.106,554.8l-50.43,185.51c-3.892,14.323-16.657,20.023-28.509,12.733L84.29,673.176c-11.861-7.267-18.312-24.8-14.42-39.118L120.308,448.51,291.79,553.948C292.226,554.222,292.67,554.5,293.106,554.8Z" transform="translate(-57.782 -223.198)" fill="#d25151"/>
        <path id="Tracciato_6" data-name="Tracciato 6" d="M267.454,234.4c-5.708-3.512-8.817-11.958-6.944-18.861l.275-1.138c1.873-6.9,8.026-9.689,13.726-6.136l62.605,38.488c5.708,3.512,8.825,11.949,6.944,18.853l-.275,1.138c-1.873,6.9-8.026,9.648-13.726,6.136Z" transform="translate(-94.614 -176.627)" fill="#231f20"/>
      </g>
      <g id="logo__shadow_1_" data-name="logo__shadow (1)" transform="translate(41.69 200.145) rotate(-45)">
        <g id="Livello_5" data-name="Livello 5" transform="translate(0 5.922)">
          <g id="Raggruppa_1" data-name="Raggruppa 1" opacity="0.54">
            <rect id="Rettangolo_1-2" data-name="Rettangolo 1" width="14.731" height="76.56" rx="7.365" transform="translate(44.194 34.493)"/>
            <rect id="Rettangolo_2-2" data-name="Rettangolo 2" width="14.731" height="52.285" rx="7.365" transform="translate(29.461 28.028)"/>
            <rect id="Rettangolo_3" data-name="Rettangolo 3" width="14.731" height="52.285" rx="7.365" transform="translate(14.731 23.362)"/>
            <rect id="Rettangolo_4" data-name="Rettangolo 4" width="14.731" height="52.285" rx="7.365" transform="translate(0 19.342)"/>
            <rect id="Rettangolo_5" data-name="Rettangolo 5" width="24.674" height="42.123" rx="12.337" transform="translate(28.105 16.613) rotate(-27.6)"/>
            <path id="Tracciato_7" data-name="Tracciato 7" d="M349.78,274.33h0c-16.238,0-31.38,11.47-31.38-4.768V252.97a29.4,29.4,0,0,1,29.4-29.4h0a29.4,29.4,0,0,1,29.4,29.4v16.59C377.2,285.8,366.018,274.33,349.78,274.33Z" transform="translate(-318.4 -223.57)"/>
            <path id="Tracciato_8" data-name="Tracciato 8" d="M262.179,573.64h3.476a3.377,3.377,0,0,1,3.377,3.377v3.549a5.116,5.116,0,0,1-5.116,5.116h0a5.116,5.116,0,0,1-5.116-5.116v-3.549a3.377,3.377,0,0,1,3.379-3.377Z" transform="translate(-212.359 -476.625)"/>
          </g>
        </g>
        <g id="Livello_3" data-name="Livello 3">
          <rect id="Rettangolo_6" data-name="Rettangolo 6" width="14.731" height="76.56" rx="7.365" transform="translate(44.194 34.493)" fill="#e28f79"/>
          <rect id="Rettangolo_7" data-name="Rettangolo 7" width="14.731" height="52.285" rx="7.365" transform="translate(29.461 28.028)" fill="#e28f79"/>
          <rect id="Rettangolo_8" data-name="Rettangolo 8" width="14.731" height="52.285" rx="7.365" transform="translate(14.731 23.362)" fill="#e28f79"/>
          <rect id="Rettangolo_9" data-name="Rettangolo 9" width="14.731" height="52.285" rx="7.365" transform="translate(0 19.342)" fill="#e28f79"/>
          <path id="Tracciato_9" data-name="Tracciato 9" d="M525.205,288.67h0a12.337,12.337,0,0,1-16.649-5.218l-8.075-15.465a12.335,12.335,0,0,1,5.22-16.647h0l14.706,2q.972,1.615,1.942,3.214l8.075,15.463a12.337,12.337,0,0,1-5.218,16.649Z" transform="translate(-466.654 -240.435)" fill="url(#linear-gradient)"/>
          <path id="Tracciato_10" data-name="Tracciato 10" d="M349.78,241.33c-16.238,0-31.38,11.47-31.38-4.768V219.97a29.4,29.4,0,0,1,29.4-29.4h0a29.429,29.429,0,0,1,24.344,12.909,34.662,34.662,0,0,0,.273,16.089c1.809,6.717,5.161,10.065,4.786,16.994C377.041,239.55,376.9,241.33,349.78,241.33Z" transform="translate(-318.4 -190.57)" fill="#e28f79"/>
          <path id="Tracciato_11" data-name="Tracciato 11" d="M262.179,540.64h3.476a3.377,3.377,0,0,1,3.377,3.377v3.549a5.116,5.116,0,0,1-5.116,5.116h0a5.116,5.116,0,0,1-5.116-5.116v-3.549a3.377,3.377,0,0,1,3.377-3.377Z" transform="translate(-212.359 -443.625)" fill="#e5a693"/>
        </g>
      </g>
    </g>
  </g>
</svg>
