<svg xmlns="http://www.w3.org/2000/svg" xmlns:xlink="http://www.w3.org/1999/xlink" width="375" height="812" viewBox="0 0 375 812">
  <defs>
    <clipPath id="clip-iPhone_X_XS_11_Pro_1">
      <rect width="375" height="812"/>
    </clipPath>
  </defs>
  <g id="iPhone_X_XS_11_Pro_1" data-name="iPhone X, XS, 11 Pro – 1" clip-path="url(#clip-iPhone_X_XS_11_Pro_1)">
    <g id="flat_phone_2" transform="translate(19 52)">
      <rect id="Rettangolo_1" data-name="Rettangolo 1" width="22.59" height="73.02" rx="6.92" transform="translate(314.76 86.91)" fill="#353535"/>
      <rect id="Rettangolo_2" data-name="Rettangolo 2" width="22.59" height="73.02" rx="6.92" transform="translate(314.76 170.43)" fill="#353535"/>
      <rect id="Rettangolo_3" data-name="Rettangolo 3" width="331.56" height="651.11" rx="39.88" fill="#231f20"/>
      <rect id="Rettangolo_4" data-name="Rettangolo 4" width="311.66" height="612.03" rx="39.88" transform="translate(9.95 19.54)" fill="#fff"/>
      <rect id="Rettangolo_5" data-name="Rettangolo 5" width="134.6" height="29.61" rx="10.79" transform="translate(98.48 5.72)" fill="#231f20"/>
    </g>
    <g id="undraw_security_o890" transform="translate(-280.511 173.476)">
      <path id="Tracciato_3" data-name="Tracciato 3" d="M626.621,299.359h-8.453V282.94c0-18.528-14.772-33.93-33.3-34.211a33.861,33.861,0,0,0-34.217,33.755v16.875h-8.434a14.111,14.111,0,0,0-14.067,14.067v67.511A14.111,14.111,0,0,0,542.217,395h84.4a14.1,14.1,0,0,0,14.061-14.067V313.426A14.1,14.1,0,0,0,626.621,299.359Zm-37.274,43.886v24.18a5.047,5.047,0,0,1-4.678,5.066,4.935,4.935,0,0,1-5.166-4.928V343.233a11.229,11.229,0,1,1,9.844,0Zm18.989-43.886H560.5V282.484a23.911,23.911,0,0,1,47.823,0Z" transform="translate(-115.97 -116.792)" opacity="0.1"/>
      <path id="Tracciato_4" data-name="Tracciato 4" d="M626.621,297.359h-8.453V280.94c0-18.528-14.772-33.93-33.3-34.211a33.861,33.861,0,0,0-34.217,33.755v16.874h-8.434a14.111,14.111,0,0,0-14.067,14.067v67.511A14.111,14.111,0,0,0,542.217,393h84.4a14.1,14.1,0,0,0,14.061-14.067V311.426A14.1,14.1,0,0,0,626.621,297.359Zm-37.274,43.886v24.18a5.047,5.047,0,0,1-4.678,5.066,4.934,4.934,0,0,1-5.166-4.928V341.233a11.229,11.229,0,1,1,9.844,0Zm18.989-43.886H560.5V280.484a23.911,23.911,0,1,1,47.823,0Z" transform="translate(-115.97 -116.04)" fill="#4288fc"/>
    </g>
  </g>
</svg>
