<svg id="Livello_1" data-name="Livello 1" xmlns="http://www.w3.org/2000/svg" xmlns:xlink="http://www.w3.org/1999/xlink" viewBox="0 0 813.75 668.61"><defs><style>.cls-1{fill:#585858;}.cls-2{fill:#414042;}.cls-3{fill:#353535;}.cls-4{fill:#231f20;}.cls-5{fill:#d35151;}.cls-6{fill:#51a3d3;}.cls-7{fill:#232223;}.cls-8{fill:#323133;}.cls-9{fill:#e28f79;}.cls-10{fill:url(#Sfumatura_senza_nome_42);}.cls-11{fill:#e5a693;}.cls-12{opacity:0.5;}</style><linearGradient id="Sfumatura_senza_nome_42" x1="572.64" y1="250.83" x2="665" y2="250.83" gradientUnits="userSpaceOnUse"><stop offset="0.74" stop-color="#e28f79"/><stop offset="0.88" stop-color="#db9486"/><stop offset="1" stop-color="#d8968b"/></linearGradient></defs><title>tapphone</title><path class="cls-1" d="M303.39,627.38c2.44,1.41,2.46,3.7,0,5.11a9.72,9.72,0,0,1-8.82,0l-.71-.41a9.73,9.73,0,0,0,8.81,0c2.43-1.42,2.42-3.7,0-5.11Z" transform="translate(-93.12 -165.69)"/><polygon class="cls-2" points="769.59 341.04 311.08 607.49 50.44 457.01 508.95 190.55 769.59 341.04"/><path class="cls-3" d="M892.47,502.18,390.74,793.75c-.46.27-.94.54-1.42.79-.15.09-.31.16-.46.24l-1,.52-.53.26c-.34.17-.68.32-1,.48l-.52.24c-.4.18-.81.35-1.23.52l-.32.14-1.58.62-.43.16c-.39.14-.79.29-1.19.42l-.58.2-1.15.37-.48.15c-.54.17-1.08.33-1.64.48l-1.48.4-.46.11-1.08.26-.5.11-1.18.26-.36.07-1.53.3-.44.07-1,.18-.55.08-.93.14-.57.08-.94.12-.56.07-1,.11-.47,0-.69.07-.67.06-.69,0-.68.05-.7,0-.68,0-.7,0-.64,0c-.76,0-1.52,0-2.28,0H356l-2.22,0h-.38L351.3,802l-.35,0c-.73,0-1.45-.08-2.17-.14l-.19,0c-.72-.06-1.44-.13-2.15-.21l-.19,0c-.71-.08-1.43-.17-2.14-.27l-.34-.05c-.72-.1-1.44-.21-2.15-.34l-.36-.06c-.72-.12-1.42-.26-2.13-.4l-.33-.07c-.71-.15-1.41-.31-2.11-.48l-.23-.05c-.73-.18-1.46-.37-2.18-.57-.49-.13-1-.28-1.46-.42l-.45-.14c-.56-.17-1.12-.35-1.67-.54l-.36-.13c-.43-.14-.86-.3-1.28-.45l-.57-.22-1-.38-1-.44-.74-.31-1.06-.49-.68-.31-1.13-.57-.56-.29c-.56-.29-1.1-.59-1.64-.9L107.85,670.89c-9.78-5.64-14.66-13-14.64-20.44l-.09,32.15C93.1,690,98,697.4,107.75,703L320.56,825.9c.58.34,1.18.66,1.79,1l.61.31,1.23.61.75.34,1.16.52.82.34.79.33.41.16.52.19,1.54.56.36.12c.62.22,1.26.42,1.89.61l.48.15.82.24.87.24.25.07,1.95.49.37.09,1.73.38.17,0,1.53.29.84.16,2,.32.35.05h0q1.19.16,2.37.3l.58.05,1.8.18h.05l.83.06,1.53.1,1,0c.47,0,.94,0,1.42.06h.92l1.54,0,1,0,1.44,0h.27l1.67-.08.36,0q1.06-.06,2.13-.15h.07l1.26-.12.72-.08.52,0,2.05-.26.31,0c.59-.08,1.19-.18,1.78-.28l.53-.09.41-.07.74-.14,1.3-.26,1.05-.23,1.26-.29,1-.26,1.24-.33,1-.3c.41-.11.81-.24,1.21-.36l.53-.16.73-.25.45-.15c.62-.22,1.23-.44,1.83-.67l.34-.13,1.51-.61.46-.2q.88-.37,1.74-.78l.2-.1c.52-.24,1-.49,1.52-.75l.44-.23c.55-.3,1.1-.6,1.64-.91L892.38,534.33c9.59-5.57,14.38-12.86,14.41-20.16l.09-32.15C906.86,489.32,902.06,496.61,892.47,502.18Z" transform="translate(-93.12 -165.69)"/><path class="cls-4" d="M892.15,461.58c19.42,11.21,19.53,29.38.23,40.6L390.65,793.75C371.36,805,340,805,320.56,793.75L107.75,670.89c-19.41-11.21-19.52-29.39-.22-40.6L609.26,338.72c19.29-11.22,50.67-11.22,70.09,0Z" transform="translate(-93.12 -165.69)"/><path class="cls-5" d="M860.77,507.34l-251.4,146.1-209.91,122c-17.74,10.31-46.59,10.31-64.45,0l-195.66-113c-17.86-10.3-17.95-27-.21-37.33l209.91-122,251.4-146.09c17.74-10.31,46.6-10.31,64.45,0L860.56,470C878.42,480.32,878.51,497,860.77,507.34Z" transform="translate(-93.12 -165.69)"/><path class="cls-6" d="M609.37,653.44l-209.91,122c-17.74,10.31-46.59,10.31-64.45,0l-195.66-113c-17.86-10.3-17.95-27-.21-37.33l209.91-122Z" transform="translate(-93.12 -165.69)"/><polygon class="cls-7" points="546.69 504.06 543.92 502.48 543.9 494.04 622.49 448.66 625.26 450.24 546.67 495.62 546.69 504.06"/><polygon class="cls-8" points="653.05 442.64 688.11 422.37 688.08 413.93 653.02 434.19 653.05 442.64"/><polygon class="cls-7" points="653.05 442.64 650.27 441.06 650.25 432.62 685.31 412.35 688.08 413.93 653.02 434.19 653.05 442.64"/><path class="cls-9" d="M522.49,97h22.19a9.62,9.62,0,0,1,9.62,9.62V293.81a18.51,18.51,0,0,1-18.51,18.51h-4.41a18.51,18.51,0,0,1-18.51-18.51V106.63A9.62,9.62,0,0,1,522.49,97Z"/><path class="cls-9" d="M481.06,78.82h22.19a9.62,9.62,0,0,1,9.62,9.62V207.36a18.51,18.51,0,0,1-18.51,18.51H490a18.51,18.51,0,0,1-18.51-18.51V88.44a9.62,9.62,0,0,1,9.62-9.62Z"/><path class="cls-9" d="M439.63,65.7h22.19a9.62,9.62,0,0,1,9.62,9.62V194.24a18.51,18.51,0,0,1-18.51,18.51h-4.41A18.51,18.51,0,0,1,430,194.24V75.32a9.62,9.62,0,0,1,9.62-9.62Z"/><path class="cls-9" d="M398.2,65.7h22.19A9.62,9.62,0,0,1,430,75.32V182.93a18.51,18.51,0,0,1-18.51,18.51h-4.41a18.51,18.51,0,0,1-18.51-18.51V75.32a9.62,9.62,0,0,1,9.62-9.62Z"/><path class="cls-10" d="M646.37,301.35h0a34.69,34.69,0,0,1-46.82-14.68l-23-44a34.06,34.06,0,0,1,15-46.28h0L632.86,202l5.46,9q11.35,21.75,22.73,43.49A34.69,34.69,0,0,1,646.37,301.35Z" transform="translate(-93.12 -165.69)"/><path class="cls-9" d="M570,308.45c-45.67,0-88.26,32.26-88.26-13.41V248.38a82.69,82.69,0,0,1,82.69-82.69h0A82.8,82.8,0,0,1,632.86,202c-4.07,20.39-1.89,35.43.76,45.25,5.09,18.89,14.52,28.31,13.46,47.79C646.62,303.45,646.24,308.45,570,308.45Z" transform="translate(-93.12 -165.69)"/><path class="cls-11" d="M522.41,272.85h22.35a3.21,3.21,0,0,1,3.21,3.21v17.79a12.86,12.86,0,0,1-12.86,12.86h-3.06a12.86,12.86,0,0,1-12.86-12.86V276.06a3.21,3.21,0,0,1,3.21-3.21Z"/><rect class="cls-12" x="509.86" y="327.28" width="47.45" height="21.01" rx="10.51"/></svg>